<svg width="48" height="48" viewBox="0 0 48 48" fill="none" xmlns="http://www.w3.org/2000/svg">
<path d="M31.5 12.375H29.625V10.5C29.625 10.2016 29.5065 9.91548 29.2955 9.7045C29.0845 9.49353 28.7984 9.375 28.5 9.375C28.2016 9.375 27.9155 9.49353 27.7045 9.7045C27.4935 9.91548 27.375 10.2016 27.375 10.5V12.375H20.625V10.5C20.625 10.2016 20.5065 9.91548 20.2955 9.7045C20.0845 9.49353 19.7984 9.375 19.5 9.375C19.2016 9.375 18.9155 9.49353 18.7045 9.7045C18.4935 9.91548 18.375 10.2016 18.375 10.5V12.375H16.5C15.406 12.375 14.3568 12.8096 13.5832 13.5832C12.8096 14.3568 12.375 15.406 12.375 16.5V33C12.375 34.094 12.8096 35.1432 13.5832 35.9168C14.3568 36.6904 15.406 37.125 16.5 37.125H31.5C32.594 37.125 33.6432 36.6904 34.4168 35.9168C35.1904 35.1432 35.625 34.094 35.625 33V16.5C35.625 15.406 35.1904 14.3568 34.4168 13.5832C33.6432 12.8096 32.594 12.375 31.5 12.375ZM16.5 14.625H18.375V16.5C18.375 16.7984 18.4935 17.0845 18.7045 17.2955C18.9155 17.5065 19.2016 17.625 19.5 17.625C19.7984 17.625 20.0845 17.5065 20.2955 17.2955C20.5065 17.0845 20.625 16.7984 20.625 16.5V14.625H27.375V16.5C27.375 16.7984 27.4935 17.0845 27.7045 17.2955C27.9155 17.5065 28.2016 17.625 28.5 17.625C28.7984 17.625 29.0845 17.5065 29.2955 17.2955C29.5065 17.0845 29.625 16.7984 29.625 16.5V14.625H31.5C31.9973 14.625 32.4742 14.8225 32.8258 15.1742C33.1775 15.5258 33.375 16.0027 33.375 16.5V20.625H14.625V16.5C14.625 16.0027 14.8225 15.5258 15.1742 15.1742C15.5258 14.8225 16.0027 14.625 16.5 14.625V14.625ZM31.5 34.875H16.5C16.0027 34.875 15.5258 34.6775 15.1742 34.3258C14.8225 33.9742 14.625 33.4973 14.625 33V22.875H33.375V33C33.375 33.4973 33.1775 33.9742 32.8258 34.3258C32.4742 34.6775 31.9973 34.875 31.5 34.875Z" fill="currentColor"/>
<rect x="16.125" y="24.75" width="2.25" height="2.25" rx="1" fill="currentColor"/>
<rect x="20.625" y="24.75" width="2.25" height="2.25" rx="1" fill="currentColor"/>
<rect x="25.125" y="24.75" width="2.25" height="2.25" rx="1" fill="currentColor"/>
<rect x="29.625" y="24.75" width="2.25" height="2.25" rx="1" fill="currentColor"/>
<rect x="16.125" y="28.5" width="2.25" height="2.25" rx="1" fill="currentColor"/>
<rect x="20.625" y="28.5" width="2.25" height="2.25" rx="1" fill="currentColor"/>
<rect x="25.125" y="28.5" width="2.25" height="2.25" rx="1" fill="currentColor"/>
</svg>